<?xml version="1.0" encoding="UTF-8"?>
<svg width="960px" height="176px" viewBox="0 0 960 176" version="1.1" xmlns="http://www.w3.org/2000/svg" xmlns:xlink="http://www.w3.org/1999/xlink">
    <title>ohif-logo-dark</title>
    <g id="Color-and-brand-hierarchy" stroke="none" stroke-width="1" fill="none" fill-rule="evenodd">
        <g id="ohif-logo-dark" transform="translate(-92.000000, -99.000000)" fill-rule="nonzero">
            <g transform="translate(93.000000, 100.000000)">
                <path d="M252.991045,59.9190776 C267.880138,59.9190776 278.677573,48.4137034 278.677573,29.9595388 C278.677573,11.5053742 267.880138,0 252.991045,0 C238.101951,0 227.304517,11.5053742 227.304517,29.9595388 C227.304517,48.4137034 238.101951,59.9190776 252.991045,59.9190776 Z M253.602629,53.804886 C242.980962,53.804886 234.643525,45.6446772 234.643525,30.570958 C234.643525,15.4972388 242.980962,7.33702991 253.602629,7.33702991 C264.224295,7.33702991 272.561733,15.4972388 272.561733,30.570958 C272.561733,45.6446772 264.224295,53.804886 253.602629,53.804886 Z M296.285419,74.5931375 L296.285419,51.7721754 L296.844684,51.7721754 C298.298775,54.1329646 301.095103,59.3042171 309.372234,59.3042171 C320.110133,59.3042171 327.604293,50.6479901 327.604293,36.9329292 C327.604293,23.3302868 320.110133,14.6740598 309.260381,14.6740598 C300.871397,14.6740598 298.298775,19.8453123 296.844684,22.0936829 L296.061712,22.0936829 L296.061712,15.2361525 L289.686085,15.2361525 L289.686085,74.5931375 L296.285419,74.5931375 Z M309.146577,53.804886 C301.32271,53.804886 297.025093,46.9973325 297.025093,37.1263799 C297.025093,27.3688865 301.212515,20.7882514 309.146577,20.7882514 C317.411226,20.7882514 321.488453,27.9361826 321.488453,37.1263799 C321.488453,46.4300364 317.301031,53.804886 309.146577,53.804886 Z M356.247413,59.9190776 C364.997769,59.9190776 371.392259,55.474353 373.411572,48.8642496 L367.017081,47.0407728 C365.334321,51.5994648 361.435925,53.8788108 356.247413,53.8788108 C348.478668,53.8788108 343.121879,48.7787741 342.813373,39.4049638 L374.084676,39.4049638 L374.084676,36.5557813 C374.084676,20.2584575 364.549032,14.6740598 355.574309,14.6740598 C343.907168,14.6740598 336.166468,24.0193784 336.166468,37.4675197 C336.166468,50.915661 343.794984,59.9190776 356.247413,59.9190776 Z M367.968836,33.0166346 L343.505476,33.0166346 C343.952806,26.5507417 348.67773,20.7882514 356.226424,20.7882514 C363.383704,20.7882514 367.968836,25.9826089 367.968836,33.0166346 Z M391.740141,58.6962393 L391.740141,32.5545338 C391.740141,24.9723075 396.415539,20.6719403 402.780841,20.6719403 C408.948988,20.6719403 412.69494,24.7176805 412.69494,31.5360257 L412.69494,58.6962393 L419.341892,58.6962393 L419.341892,31.0833555 C419.341892,19.992935 413.455396,14.6740598 404.696065,14.6740598 C398.161773,14.6740598 394.106005,17.6164163 392.078121,22.029951 L391.51482,22.029951 L391.51482,15.2398976 L385.093188,15.2398976 L385.093188,58.6962393 L391.740141,58.6962393 Z M460.658474,58.6962393 L460.658474,32.9903627 L491.779934,32.9903627 L491.779934,58.6962393 L498.847812,58.6962393 L498.847812,1.22283832 L491.779934,1.22283832 L491.779934,26.8164622 L460.658474,26.8164622 L460.658474,1.22283832 L453.590596,1.22283832 L453.590596,58.6962393 L460.658474,58.6962393 Z M529.937268,59.9190776 C538.687624,59.9190776 545.082115,55.474353 547.101428,48.8642496 L540.706937,47.0407728 C539.024176,51.5994648 535.125781,53.8788108 529.937268,53.8788108 C522.168523,53.8788108 516.811735,48.7787741 516.503229,39.4049638 L547.774532,39.4049638 L547.774532,36.5557813 C547.774532,20.2584575 538.238888,14.6740598 529.264164,14.6740598 C517.597023,14.6740598 509.856324,24.0193784 509.856324,37.4675197 C509.856324,50.915661 517.484839,59.9190776 529.937268,59.9190776 Z M541.658692,33.0166346 L517.195332,33.0166346 C517.642662,26.5507417 522.367585,20.7882514 529.916279,20.7882514 C537.073559,20.7882514 541.658692,25.9826089 541.658692,33.0166346 Z M570.950976,59.9190776 C578.425448,59.9190776 582.330024,55.8265635 583.668735,52.9845397 L584.003413,52.9845397 L584.003413,58.8959491 L590.585412,58.8959491 L590.585412,30.1346689 C590.585412,16.2655931 580.210397,14.6740598 574.743992,14.6740598 C568.273552,14.6740598 560.910639,16.9476788 557.56386,24.9053453 L563.811181,27.1789642 C565.261452,23.9958977 568.6919,20.5854692 574.96711,20.5854692 C581.019202,20.5854692 584.003413,23.8537965 584.003413,29.4525832 L584.003413,29.6799451 C584.003413,32.9198522 580.768194,32.6356498 572.959043,33.6587784 C565.010443,34.7103271 556.336708,36.5008021 556.336708,46.5047256 C556.336708,55.0307968 562.807147,59.9190776 570.950976,59.9190776 Z M572.587368,53.804886 C567.416409,53.804886 563.675716,51.3920373 563.675716,46.6812373 C563.675716,41.5108471 568.186552,39.9022813 573.247491,39.2128959 C575.998001,38.8682032 583.369368,38.0639203 584.469572,36.6851496 L584.469572,42.8896178 C584.469572,48.4047007 580.288796,53.804886 572.587368,53.804886 Z M610.1561,58.6962393 L610.1561,1.22283832 L604.04026,1.22283832 L604.04026,58.6962393 L610.1561,58.6962393 Z M636.994543,59.9190776 C639.476505,59.9190776 641.055936,59.4716358 641.958468,59.1360543 L640.60467,53.2074494 C640.040588,53.3193099 639.138056,53.5430308 637.671442,53.5430308 C634.738214,53.5430308 631.917802,52.6481471 631.917802,47.0551236 L631.917802,21.9983783 L641.168752,21.9983783 L641.168752,16.4053548 L631.917802,16.4053548 L631.917802,6.11419159 L625.261631,6.11419159 L625.261631,16.4053548 L618.718276,16.4053548 L618.718276,21.9983783 L625.261631,21.9983783 L625.261631,48.8448911 C625.261631,56.3395426 631.35372,59.9190776 636.994543,59.9190776 Z M658.30444,58.6962393 L658.30444,32.7658572 C658.30444,25.2449239 663.058115,20.9793199 669.535346,20.9793199 C675.706785,20.9793199 679.431887,24.9081657 679.431887,31.7555826 L679.431887,58.6962393 L685.992515,58.6962393 L685.992515,31.3065717 C685.992515,20.2216139 680.154668,15.0299249 671.425697,15.0299249 C664.698273,15.0299249 660.861973,17.8643065 658.860425,22.3263527 L658.30444,22.3263527 L658.30444,1.22283832 L651.743812,1.22283832 L651.743812,58.6962393 L658.30444,58.6962393 Z M237.089861,157.746143 L237.089861,100.272742 L229.750853,100.272742 L229.750853,157.746143 L237.089861,157.746143 Z M257.27456,157.746143 L257.27456,130.58593 C257.27456,124.220255 261.951236,119.721844 267.198238,119.721844 C272.302659,119.721844 275.867199,123.031995 275.867199,127.983076 L275.867199,157.746143 L282.711115,157.746143 L282.711115,129.454254 C282.711115,123.85246 286.247138,119.721844 292.406663,119.721844 C297.197404,119.721844 301.303754,122.239822 301.303754,128.662081 L301.303754,157.746143 L308.033605,157.746143 L308.033605,128.662081 C308.033605,118.448709 302.501439,113.723964 294.687968,113.723964 C288.414378,113.723964 283.823251,116.581444 281.570462,121.079855 L281.114201,121.079855 C278.946961,116.439985 275.125774,113.723964 269.365478,113.723964 C263.662215,113.723964 259.4418,116.439985 257.616755,121.079855 L257.046429,121.079855 L257.046429,114.289801 L250.544709,114.289801 L250.544709,157.746143 L257.27456,157.746143 Z M332.433216,158.968981 C339.907689,158.968981 343.812265,154.876467 345.150976,152.034444 L345.485654,152.034444 L345.485654,157.945853 L352.067652,157.945853 L352.067652,129.184573 C352.067652,115.315497 341.692638,113.723964 336.226232,113.723964 C329.755793,113.723964 322.39288,115.997583 319.046101,123.955249 L325.293421,126.228868 C326.743692,123.045802 330.174141,119.635373 336.449351,119.635373 C342.501443,119.635373 345.485654,122.9037 345.485654,128.502487 L345.485654,128.729849 C345.485654,131.969756 342.250434,131.685554 334.441284,132.708682 C326.492684,133.760231 317.818949,135.550706 317.818949,145.554629 C317.818949,154.080701 324.289388,158.968981 332.433216,158.968981 Z M332.846441,152.85479 C327.675482,152.85479 323.934789,150.441941 323.934789,145.731141 C323.934789,140.560751 328.445625,138.952185 333.506563,138.2628 C336.257074,137.918107 343.62844,137.113824 344.728644,135.735053 L344.728644,141.939522 C344.728644,147.454605 340.547869,152.85479 332.846441,152.85479 Z M381.203586,174.86588 C391.494073,174.86588 399.771204,170.119187 399.771204,158.930556 L399.771204,114.289046 L393.395576,114.289046 L393.395576,121.183051 L392.724458,121.183051 C391.270367,118.922722 388.585892,113.723964 380.196908,113.723964 C369.347155,113.723964 361.852996,122.426233 361.852996,135.762177 C361.852996,149.324155 369.682715,157.009276 380.085055,157.009276 C388.474039,157.009276 391.158514,152.036551 392.612605,149.663204 L393.17187,149.663204 L393.17187,158.47849 C393.17187,165.711545 388.13848,168.989023 381.203586,168.989023 C373.401831,168.989023 370.66143,164.835667 368.899743,162.434067 L363.642646,166.163611 C366.327121,170.712524 371.612181,174.86588 381.203586,174.86588 Z M381.53388,151.631952 C373.379426,151.631952 369.192004,145.204325 369.192004,136.022001 C369.192004,127.069235 373.269231,119.838155 381.53388,119.838155 C389.467942,119.838155 393.655364,126.49534 393.655364,136.022001 C393.655364,145.77822 389.357747,151.631952 381.53388,151.631952 Z M415.672388,107.609772 C418.351709,107.609772 420.56506,105.683802 420.56506,103.329838 C420.56506,100.975874 418.351709,99.0499038 415.672388,99.0499038 C412.993068,99.0499038 410.779716,100.975874 410.779716,103.329838 C410.779716,105.683802 412.993068,107.609772 415.672388,107.609772 Z M419.341892,157.746143 L419.341892,114.946802 L413.226052,114.946802 L413.226052,157.746143 L419.341892,157.746143 Z M438.220525,157.746143 L438.220525,131.604438 C438.220525,124.022211 442.895923,119.721844 449.261225,119.721844 C455.429372,119.721844 459.175324,123.767584 459.175324,130.58593 L459.175324,157.746143 L465.822276,157.746143 L465.822276,130.133259 C465.822276,119.042839 459.93578,113.723964 451.176449,113.723964 C444.642157,113.723964 440.586389,116.66632 438.558505,121.079855 L437.995204,121.079855 L437.995204,114.289801 L431.573572,114.289801 L431.573572,157.746143 L438.220525,157.746143 Z M494.95821,174.86588 C505.248697,174.86588 513.525828,170.119187 513.525828,158.930556 L513.525828,114.289046 L507.1502,114.289046 L507.1502,121.183051 L506.479081,121.183051 C505.024991,118.922722 502.340516,113.723964 493.951532,113.723964 C483.101779,113.723964 475.60762,122.426233 475.60762,135.762177 C475.60762,149.324155 483.437339,157.009276 493.839679,157.009276 C502.228663,157.009276 504.913138,152.036551 506.367228,149.663204 L506.926494,149.663204 L506.926494,158.47849 C506.926494,165.711545 501.893103,168.989023 494.95821,168.989023 C487.156455,168.989023 484.416053,164.835667 482.654367,162.434067 L477.39727,166.163611 C480.081745,170.712524 485.366805,174.86588 494.95821,174.86588 Z M495.288503,151.631952 C487.13405,151.631952 482.946628,145.204325 482.946628,136.022001 C482.946628,127.069235 487.023855,119.838155 495.288503,119.838155 C503.222566,119.838155 507.409988,126.49534 507.409988,136.022001 C507.409988,145.77822 503.112371,151.631952 495.288503,151.631952 Z M557.137544,157.746143 L557.137544,132.040267 L581.903708,132.040267 L581.903708,125.866366 L557.137544,125.866366 L557.137544,106.446643 L584.469572,106.446643 L584.469572,100.272742 L550.220868,100.272742 L550.220868,157.746143 L557.137544,157.746143 Z M612.602436,158.968981 C624.299858,158.968981 632.173124,149.965565 632.173124,136.403456 C632.173124,122.72738 624.299858,113.723964 612.602436,113.723964 C600.905013,113.723964 593.031748,122.72738 593.031748,136.403456 C593.031748,149.965565 600.905013,158.968981 612.602436,158.968981 Z M613.21402,152.85479 C604.391256,152.85479 600.370756,145.139563 600.370756,136.403202 C600.370756,127.666842 604.391256,119.838155 613.21402,119.838155 C622.036784,119.838155 626.057284,127.666842 626.057284,136.403202 C626.057284,145.139563 622.036784,152.85479 613.21402,152.85479 Z M657.290736,158.968981 C663.890154,158.968981 668.213911,155.460787 670.262006,151.047253 L670.717138,151.047253 L670.717138,158.403144 L677.430339,158.403144 L677.430339,114.946802 L670.717138,114.946802 L670.717138,140.635837 C670.717138,148.783901 664.45907,152.518431 659.452614,152.518431 C653.877244,152.518431 649.894837,148.444399 649.894837,142.107016 L649.894837,114.946802 L643.181636,114.946802 L643.181636,142.559686 C643.181636,153.650106 649.098355,158.968981 657.290736,158.968981 Z M695.085804,157.746143 L695.085804,131.604438 C695.085804,124.022211 699.761203,119.721844 706.126504,119.721844 C712.294651,119.721844 716.040603,123.767584 716.040603,130.58593 L716.040603,157.746143 L722.687555,157.746143 L722.687555,130.133259 C722.687555,119.042839 716.801059,113.723964 708.041728,113.723964 C701.507436,113.723964 697.451668,116.66632 695.423784,121.079855 L694.860483,121.079855 L694.860483,114.289801 L688.438851,114.289801 L688.438851,157.746143 L695.085804,157.746143 Z M751.928126,158.968981 C760.205257,158.968981 763.001585,153.776622 764.455675,151.406197 L765.238647,151.406197 L765.238647,158.065962 L771.614275,158.065962 L771.614275,100.272742 L765.014941,100.272742 L765.014941,121.606568 L764.455675,121.606568 C763.001585,119.34902 760.428963,114.15666 752.039979,114.15666 C741.190226,114.15666 733.696067,122.848219 733.696067,136.506382 C733.696067,150.277423 741.190226,158.968981 751.928126,158.968981 Z M752.153783,152.85479 C743.999329,152.85479 739.811907,145.47994 739.811907,136.176284 C739.811907,126.986086 743.889134,119.838155 752.153783,119.838155 C760.087845,119.838155 764.275267,126.41879 764.275267,136.176284 C764.275267,146.047236 759.97765,152.85479 752.153783,152.85479 Z M797.237055,158.968981 C804.711528,158.968981 808.616103,154.876467 809.954815,152.034444 L810.289493,152.034444 L810.289493,157.945853 L816.871491,157.945853 L816.871491,129.184573 C816.871491,115.315497 806.496476,113.723964 801.030071,113.723964 C794.559632,113.723964 787.196718,115.997583 783.849939,123.955249 L790.09726,126.228868 C791.547531,123.045802 794.977979,119.635373 801.25319,119.635373 C807.305281,119.635373 810.289493,122.9037 810.289493,128.502487 L810.289493,128.729849 C810.289493,131.969756 807.054273,131.685554 799.245122,132.708682 C791.296522,133.760231 782.622787,135.550706 782.622787,145.554629 C782.622787,154.080701 789.093226,158.968981 797.237055,158.968981 Z M798.873448,152.85479 C793.702489,152.85479 789.961795,150.441941 789.961795,145.731141 C789.961795,140.560751 794.472632,138.952185 799.53357,138.2628 C802.28408,137.918107 809.655447,137.113824 810.755651,135.735053 L810.755651,141.939522 C810.755651,147.454605 806.574876,152.85479 798.873448,152.85479 Z M843.709934,158.968981 C846.191897,158.968981 847.771327,158.52154 848.673859,158.185958 L847.320061,152.257353 C846.755979,152.369214 845.853447,152.592935 844.386833,152.592935 C841.453605,152.592935 838.633193,151.698051 838.633193,146.105027 L838.633193,121.048282 L847.884144,121.048282 L847.884144,115.455259 L838.633193,115.455259 L838.633193,105.164095 L831.977022,105.164095 L831.977022,115.455259 L825.433667,115.455259 L825.433667,121.048282 L831.977022,121.048282 L831.977022,147.894795 C831.977022,155.389446 838.069111,158.968981 843.709934,158.968981 Z M862.128707,107.609772 C864.808027,107.609772 867.021379,105.683802 867.021379,103.329838 C867.021379,100.975874 864.808027,99.0499038 862.128707,99.0499038 C859.449387,99.0499038 857.236035,100.975874 857.236035,103.329838 C857.236035,105.683802 859.449387,107.609772 862.128707,107.609772 Z M864.575043,157.746143 L864.575043,114.946802 L858.459203,114.946802 L858.459203,157.746143 L864.575043,157.746143 Z M895.154243,158.968981 C906.851665,158.968981 914.724931,149.965565 914.724931,136.403456 C914.724931,122.72738 906.851665,113.723964 895.154243,113.723964 C883.45682,113.723964 875.583555,122.72738 875.583555,136.403456 C875.583555,149.965565 883.45682,158.968981 895.154243,158.968981 Z M894.542659,152.85479 C885.719895,152.85479 881.699395,145.139563 881.699395,136.403202 C881.699395,127.666842 885.719895,119.838155 894.542659,119.838155 C903.365423,119.838155 907.385923,127.666842 907.385923,136.403202 C907.385923,145.139563 903.365423,152.85479 894.542659,152.85479 Z M931.157227,157.746143 L931.157227,131.604438 C931.157227,124.022211 935.832626,119.721844 942.197928,119.721844 C948.366074,119.721844 952.112026,123.767584 952.112026,130.58593 L952.112026,157.746143 L958.758979,157.746143 L958.758979,130.133259 C958.758979,119.042839 952.872483,113.723964 944.113151,113.723964 C937.578859,113.723964 933.523092,116.66632 931.495208,121.079855 L930.931907,121.079855 L930.931907,114.289801 L924.510275,114.289801 L924.510275,157.746143 L931.157227,157.746143 Z" id="OpenHealthImagingFoundation" fill="#FFFFFF"></path>
                <g id="Group" transform="translate(0.000000, 0.421711)" fill="#5ACCE6" stroke="#5ACCE6" stroke-width="2">
                    <path d="M152.094969,0 L103.905031,0 C97.330064,0 92,5.33006397 92,11.9050311 L92,60.0949689 C92,66.669936 97.330064,72 103.905031,72 L152.094969,72 C158.669936,72 164,66.669936 164,60.0949689 L164,11.9050311 C164,5.33006397 158.669936,0 152.094969,0 Z M103.905031,4.76201244 L152.094969,4.76201244 C156.039949,4.76201244 159.237988,7.96005082 159.237988,11.9050311 L159.237988,60.0949689 C159.237988,64.0399492 156.039949,67.2379876 152.094969,67.2379876 L103.905031,67.2379876 C99.9600508,67.2379876 96.7620124,64.0399492 96.7620124,60.0949689 L96.7620124,11.9050311 C96.7620124,7.96005082 99.9600508,4.76201244 103.905031,4.76201244 Z" id="Rectangle"></path>
                    <path d="M60.0949689,0 L11.9050311,0 C5.33006397,0 0,5.33006397 0,11.9050311 L0,60.0949689 C0,66.669936 5.33006397,72 11.9050311,72 L60.0949689,72 C66.669936,72 72,66.669936 72,60.0949689 L72,11.9050311 C72,5.33006397 66.669936,0 60.0949689,0 Z M11.9050311,4.76201244 L60.0949689,4.76201244 C64.0399492,4.76201244 67.2379876,7.96005082 67.2379876,11.9050311 L67.2379876,60.0949689 C67.2379876,64.0399492 64.0399492,67.2379876 60.0949689,67.2379876 L11.9050311,67.2379876 C7.96005082,67.2379876 4.76201244,64.0399492 4.76201244,60.0949689 L4.76201244,11.9050311 C4.76201244,7.96005082 7.96005082,4.76201244 11.9050311,4.76201244 Z" id="Rectangle"></path>
                    <path d="M152.094969,92 L103.905031,92 C97.330064,92 92,97.330064 92,103.905031 L92,152.094969 C92,158.669936 97.330064,164 103.905031,164 L152.094969,164 C158.669936,164 164,158.669936 164,152.094969 L164,103.905031 C164,97.330064 158.669936,92 152.094969,92 Z M103.905031,96.7620124 L152.094969,96.7620124 C156.039949,96.7620124 159.237988,99.9600508 159.237988,103.905031 L159.237988,152.094969 C159.237988,156.039949 156.039949,159.237988 152.094969,159.237988 L103.905031,159.237988 C99.9600508,159.237988 96.7620124,156.039949 96.7620124,152.094969 L96.7620124,103.905031 C96.7620124,99.9600508 99.9600508,96.7620124 103.905031,96.7620124 Z" id="Rectangle"></path>
                    <path d="M60.0949689,92 L11.9050311,92 C5.33006397,92 0,97.330064 0,103.905031 L0,152.094969 C0,158.669936 5.33006397,164 11.9050311,164 L60.0949689,164 C66.669936,164 72,158.669936 72,152.094969 L72,103.905031 C72,97.330064 66.669936,92 60.0949689,92 Z M11.9050311,96.7620124 L60.0949689,96.7620124 C64.0399492,96.7620124 67.2379876,99.9600508 67.2379876,103.905031 L67.2379876,152.094969 C67.2379876,156.039949 64.0399492,159.237988 60.0949689,159.237988 L11.9050311,159.237988 C7.96005082,159.237988 4.76201244,156.039949 4.76201244,152.094969 L4.76201244,103.905031 C4.76201244,99.9600508 7.96005082,96.7620124 11.9050311,96.7620124 Z" id="Rectangle"></path>
                </g>
            </g>
        </g>
    </g>
</svg>